<?xml version="1.0" encoding="UTF-8" standalone="no"?><!DOCTYPE svg PUBLIC "-//W3C//DTD SVG 1.1//EN" "http://www.w3.org/Graphics/SVG/1.1/DTD/svg11.dtd"><svg width="100%" height="100%" viewBox="0 0 70 18" version="1.1" xmlns="http://www.w3.org/2000/svg" xmlns:xlink="http://www.w3.org/1999/xlink" xml:space="preserve" xmlns:serif="http://www.serif.com/" style="fill-rule:evenodd;clip-rule:evenodd;stroke-linejoin:round;stroke-miterlimit:1.41421;"><g><path d="M40.939,3.118c2.101,-3.686 6.303,-3.686 8.404,-1.843c2.101,1.843 2.101,5.529 0,9.216c-1.471,2.764 -5.253,5.529 -8.404,7.372c-3.152,-1.843 -6.934,-4.608 -8.404,-7.372c-2.102,-3.687 -2.102,-7.373 0,-9.216c2.101,-1.843 6.303,-1.843 8.404,1.843Z" style="fill:#383838;"/><path d="M29.955,2.743c1.887,-3.311 5.662,-3.311 7.549,-1.656c1.887,1.656 1.887,4.967 0,8.278c-1.321,2.483 -4.718,4.967 -7.549,6.622c-2.831,-1.655 -6.228,-4.139 -7.549,-6.622c-1.887,-3.311 -1.887,-6.622 0,-8.278c1.888,-1.655 5.662,-1.655 7.549,1.656Z" style="fill:#ff5667;"/><rect x="0" y="8.665" width="13.675" height="0.598" style="fill:#221a01;"/><rect x="0" y="8.665" width="13.675" height="0.598" style="fill:#373737;"/><rect x="56.075" y="8.665" width="13.675" height="0.598" style="fill:#373737;"/></g></svg>